<svg width="1428" height="1300" viewBox="0 0 1428 1300" fill="none" xmlns="http://www.w3.org/2000/svg">
<rect width="1428" height="1300" fill="transparent"/>
<path d="M683 146L1183.56 417V959L683 1230L182.437 959V417L683 146Z" fill="#16B7DA"/>
<path d="M547.605 557L1140 704.883V750H406L547.605 557Z" fill="#BFBFBF"/>
<path d="M473 736H695V740C695 740.552 694.552 741 694 741H473V736Z" fill="#16B7DA"/>
<path d="M477 714H695V718C695 718.552 694.552 719 694 719H477V714Z" fill="#16B7DA"/>
<path d="M471 690H697V694C697 694.552 696.552 695 696 695H471V690Z" fill="#16B7DA"/>
<path d="M499 636H725V640C725 640.552 724.552 641 724 641H499V636Z" fill="#16B7DA"/>
<path d="M460 653C460 651.895 460.895 651 462 651H597C598.105 651 599 651.895 599 653V654C599 655.105 598.105 656 597 656H462C460.895 656 460 655.105 460 654V653Z" fill="#16B7DA"/>
<path d="M490 617C490 615.895 490.895 615 492 615H627C628.105 615 629 615.895 629 617V618C629 619.105 628.105 620 627 620H492C490.895 620 490 619.105 490 618V617Z" fill="#16B7DA"/>
<path d="M621 665H665V669C665 669.552 664.552 670 664 670H621V665Z" fill="#16B7DA"/>
<path d="M733 668H879V673H733V668Z" fill="#16B7DA"/>
<path d="M731 692H980V697H731V692Z" fill="#16B7DA"/>
<path d="M731 714H905V719H731V714Z" fill="#16B7DA"/>
<rect x="694" y="690.5" width="45" height="5" transform="rotate(-30 694 690.5)" fill="#16B7DA"/>
<rect x="626" y="615.309" width="28.6171" height="5" transform="rotate(-30 626 615.309)" fill="#16B7DA"/>
<path d="M597.5 651L624.311 666.479L622.811 669.077C622.259 670.034 621.036 670.362 620.079 669.809L595 655.33L597.5 651Z" fill="#16B7DA"/>
<rect x="692" y="714.5" width="45" height="5" transform="rotate(-30 692 714.5)" fill="#16B7DA"/>
<rect x="692" y="736.5" width="45" height="5" transform="rotate(-30 692 736.5)" fill="#16B7DA"/>
<path fill-rule="evenodd" clip-rule="evenodd" d="M293.951 515.533C284.664 513.151 275.801 510.878 267.498 509C291.992 547.154 296.464 567.52 290.049 602.25C265.61 626.28 254.982 644.102 244.947 688.507C243.699 713.681 236.668 723.349 213 732.8C237.86 755.505 255.134 753.753 290.049 732.8C327.169 769.024 350.776 772.662 399.044 749.119H470.455C491.633 640.754 507.176 603.213 549.383 627.894L570.054 562.619L479.851 532.313C476.024 533.654 472.407 534.989 468.946 536.267C442.365 546.082 424.93 552.52 391.527 532.313C357.679 531.88 323.653 523.152 293.951 515.533ZM419.212 577.337L393.086 567.648C352.951 611.051 336.375 639.826 316.503 698.411L330.233 729.265L359.431 737.103L389.046 664.478L436.015 606.34L419.212 577.337Z" fill="#C8A065"/>
<circle cx="878.5" cy="670.5" r="5.5" fill="#16B7AD"/>
<circle cx="725.5" cy="638.5" r="5.5" fill="#16B7AD"/>
<circle cx="664.5" cy="667.5" r="5.5" fill="#transparent"/>
<circle cx="652.5" cy="601.5" r="5.5" fill="#16B7AD"/>
<circle cx="979.5" cy="694.5" r="5.5" fill="#16B7AD"/>
<circle cx="904.5" cy="717.5" r="5.5" fill="#16B7AD"/>
</svg>